<?xml version="1.0" encoding="utf-8"?>
<!-- Generator: Adobe Illustrator 19.2.1, SVG Export Plug-In . SVG Version: 6.00 Build 0)  -->
<svg version="1.1" id="Layer_1" xmlns="http://www.w3.org/2000/svg" xmlns:xlink="http://www.w3.org/1999/xlink" x="0px" y="0px"
	 viewBox="0 0 400 150" style="enable-background:new 0 0 400 150;" xml:space="preserve">
<style type="text/css">
	.st0{fill:#3F3F3F;}
	.st1{fill:#FFDD00;}
	.st2{fill:none;stroke:#5D5D5D;stroke-miterlimit:10;}
	.st3{fill:#3F3F3F;stroke:#FFFFFF;stroke-width:0.2984;stroke-miterlimit:10;}
</style>
<path class="st0" d="M94.2,106.1l-6,15.4c-0.1,0.3-0.3,0.5-0.5,0.8c-0.5,0.5-1.1,0.7-1.7,0.7c-0.7,0-1.2-0.2-1.7-0.7
	c-0.5-0.5-0.7-1-0.7-1.7c0-0.4,0.1-0.7,0.2-1l16.8-43.2c0.1-0.4,0.3-0.7,0.6-1c0.5-0.5,1-0.7,1.7-0.7s1.2,0.2,1.7,0.7
	c0.3,0.3,0.5,0.6,0.6,1l16.8,43.2c0.1,0.3,0.2,0.6,0.2,1c0,0.7-0.2,1.2-0.7,1.7c-0.5,0.5-1,0.7-1.7,0.7c-0.7,0-1.2-0.2-1.7-0.7
	c-0.2-0.2-0.4-0.5-0.5-0.8l-6-15.4H94.2z M109.7,101.3l-6.8-17.5l-6.8,17.5H109.7z"/>
<path class="st0" d="M156.1,77.1c0-0.7,0.2-1.2,0.7-1.7c0.5-0.5,1-0.7,1.7-0.7s1.2,0.2,1.7,0.7c0.5,0.5,0.7,1,0.7,1.7v29.1
	c0,4.7-1.7,8.7-5,12c-3.3,3.3-7.3,5-12,5c-4.7,0-8.7-1.7-12-5c-3.3-3.3-5-7.3-5-12c0-4.7,1.7-8.7,5-12c3.3-3.3,7.3-5,12-5
	s8.7,1.7,12,5c0,0,0.1,0.1,0.1,0.1L156.1,77.1L156.1,77.1z M156.1,106.1c0-3.3-1.2-6.2-3.5-8.6c-2.4-2.4-5.2-3.5-8.6-3.5
	s-6.2,1.2-8.6,3.5c-2.4,2.4-3.5,5.2-3.5,8.6s1.2,6.2,3.5,8.6c2.4,2.4,5.2,3.5,8.6,3.5s6.2-1.2,8.6-3.5
	C154.9,112.3,156.1,109.5,156.1,106.1z"/>
<path class="st1" d="M201.4,118.2c0.7,0,1.2,0.2,1.7,0.7c0.5,0.5,0.7,1,0.7,1.7c0,0.7-0.2,1.2-0.7,1.7c-0.5,0.5-1,0.7-1.7,0.7
	c-8.1,0-12.1-4-12.1-12.1V94h-2.4c-0.7,0-1.2-0.2-1.7-0.7c-0.5-0.5-0.7-1-0.7-1.7c0-0.7,0.2-1.2,0.7-1.7c0.5-0.5,1-0.7,1.7-0.7h2.4
	V77.1c0-0.7,0.2-1.2,0.7-1.7c0.5-0.5,1-0.7,1.7-0.7c0.7,0,1.2,0.2,1.7,0.7c0.5,0.5,0.7,1,0.7,1.7v12.1h4.9c0.7,0,1.2,0.2,1.7,0.7
	c0.5,0.5,0.7,1,0.7,1.7c0,0.7-0.2,1.2-0.7,1.7c-0.5,0.5-1,0.7-1.7,0.7h-4.9V111C194.2,115.8,196.6,118.2,201.4,118.2z"/>
<path class="st1" d="M233.1,114.8c0.7,0,1.2,0.2,1.7,0.7c0.5,0.5,0.7,1,0.7,1.7c0,0.7-0.2,1.2-0.7,1.7c-3.1,2.7-6.8,4.1-11,4.1
	c-4.7,0-8.7-1.7-12-5c-3.3-3.3-5-7.3-5-12c0-4.7,1.7-8.7,5-12c3.3-3.3,7.3-5,12-5c4.7,0,8.7,1.7,12,5c3.3,3.3,5,7.3,5,12
	c0,0.7-0.2,1.2-0.7,1.7c-0.5,0.5-1,0.7-1.7,0.7H212c0.4,2.3,1.6,4.4,3.3,6.1c2.4,2.4,5.2,3.5,8.6,3.5c3,0,5.6-1,7.8-2.9
	C232.1,115,232.6,114.8,233.1,114.8z M235.7,103.7c-0.4-2.3-1.6-4.4-3.3-6.1c-2.4-2.4-5.2-3.5-8.6-3.5s-6.2,1.2-8.6,3.5
	c-1.8,1.8-2.9,3.8-3.3,6.1H235.7z"/>
<path class="st1" d="M245.6,91.6c0-0.7,0.2-1.2,0.7-1.7s1-0.7,1.7-0.7s1.2,0.2,1.7,0.7c0.5,0.5,0.7,1,0.7,1.7v2
	c3-2.9,6.6-4.4,10.9-4.4c4.3,0,8,1.5,11.1,4.6c3.1,3.1,4.6,6.8,4.6,11.1v15.7c0,0.7-0.2,1.2-0.7,1.7c-0.5,0.5-1,0.7-1.7,0.7
	c-0.7,0-1.2-0.2-1.7-0.7c-0.5-0.5-0.7-1-0.7-1.7v-15.7c0-3-1.1-5.6-3.2-7.7c-2.1-2.1-4.7-3.2-7.7-3.2s-5.6,1.1-7.7,3.2
	c-2.1,2.1-3.2,4.7-3.2,7.7v15.7c0,0.7-0.2,1.2-0.7,1.7c-0.5,0.5-1,0.7-1.7,0.7s-1.2-0.2-1.7-0.7c-0.5-0.5-0.7-1-0.7-1.7L245.6,91.6
	L245.6,91.6z"/>
<path class="st1" d="M310.8,118c-3.4,3.4-7.4,5.1-12.1,5.1c-4.7,0-8.7-1.7-12-5c-3.3-3.3-5-7.3-5-12c0-4.7,1.7-8.7,5-12
	c3.3-3.3,7.3-5,12-5s8.7,1.7,12,5c3.3,3.3,5,7.3,5,12v14.5c0,0.7-0.2,1.2-0.7,1.7c-0.5,0.5-1,0.7-1.7,0.7s-1.2-0.2-1.7-0.7
	c-0.5-0.5-0.7-1-0.7-1.7L310.8,118L310.8,118z M298.8,94c-3.3,0-6.2,1.2-8.6,3.5c-2.4,2.4-3.5,5.2-3.5,8.6s1.2,6.2,3.5,8.6
	c2.4,2.4,5.2,3.5,8.6,3.5s6.2-1.2,8.6-3.5c2.4-2.4,3.5-5.2,3.5-8.6s-1.2-6.2-3.5-8.6C305,95.2,302.1,94,298.8,94z"/>
<path d="M155.2,28.6c-0.3,0.2-0.6,0.3-0.9,0.5C154.6,28.9,154.9,28.8,155.2,28.6z"/>
<g>
	<rect x="175.1" y="85.3" class="st2" width="0.3" height="59"/>
</g>
<circle class="st0" cx="175.1" cy="72" r="4.5"/>
<path class="st0" d="M192.5,65.4c-2.2,0-4.6-0.7-6.8-2.5c-4.1-3.2-6.2-4.5-10.6-4.5c-4,0-7.5,1.4-10.4,4.3c-1,1-2.7,1-3.7,0
	s-1-2.7,0-3.7c3.8-3.8,8.7-5.8,14.1-5.8c6.2,0,9.5,2.2,13.9,5.7c2.8,2.2,5.8,1.5,7.3-0.4c1.7-2,1.2-4.6-1.4-6.9
	C183.1,41,167.2,41,155.2,51.5c-4,3.5-8.5,4.7-12.4,3.2c-3.4-1.3-5.7-4.4-6.2-8.2c-0.6-4.9,2-10,7-13.6c21.5-15.3,41.4-15.3,62.6,0
	c5.7,4.4,10.3,3.8,12.3,1.5c2.1-2.5,1.7-7.7-4.3-13.1C188.6-1.8,150.5,6,129.9,26.5c-1,1-2.7,1-3.7,0c-1-1-1-2.7,0-3.7
	c22.3-22.2,63.6-30.5,91.5-5.4c8.5,7.7,8.5,16,4.8,20.4c-3.5,4.2-11.1,5.8-19.4-0.7c-19.3-13.9-36.7-13.9-56.4,0.1
	c-3.5,2.5-5.2,5.6-4.9,8.6c0.2,1.9,1.3,3.4,2.9,4c2,0.8,4.6-0.1,7.1-2.3c14-12.3,32.7-12.3,46.6,0.1c5.4,4.8,4.8,10.7,1.9,14.1
	C198.5,63.9,195.6,65.4,192.5,65.4z"/>
<g>
	<path class="st3" d="M135.5,135.6l2.2,7.4h0l2.1-7.4h1.2l2.1,7.4h0l2.2-7.4h1.1l-2.8,8.7h-1.2l-2.1-7.3h0l-2.1,7.3h-1.2l-2.8-8.7
		H135.5z"/>
	<path class="st3" d="M150.3,132.3v1.7h-1.1v-1.7H150.3z M150.3,135.6v8.7h-1.1v-8.7H150.3z"/>
	<path class="st3" d="M155.6,136.5v7.8h-1.1v-7.8H153v-0.9h1.5v-0.8c0-0.4,0-0.7,0.1-1c0.1-0.3,0.2-0.6,0.3-0.8
		c0.2-0.2,0.4-0.4,0.6-0.5c0.3-0.1,0.6-0.2,1.1-0.2c0.2,0,0.3,0,0.4,0c0.1,0,0.3,0,0.5,0.1v0.9c-0.1,0-0.3,0-0.4-0.1
		c-0.1,0-0.2,0-0.4,0c-0.3,0-0.5,0-0.7,0.1c-0.2,0.1-0.3,0.2-0.3,0.4s-0.1,0.3-0.1,0.5c0,0.2,0,0.4,0,0.7v0.8h1.7v0.9H155.6z"/>
	<path class="st3" d="M160.9,132.3v1.7h-1.1v-1.7H160.9z M160.9,135.6v8.7h-1.1v-8.7H160.9z"/>
</g>
<g>
	<path class="st3" d="M188,137c0.2-0.4,0.4-0.7,0.7-0.9c0.3-0.2,0.7-0.4,1.1-0.5c0.4-0.1,0.9-0.2,1.4-0.2c0.4,0,0.8,0,1.1,0.1
		c0.4,0.1,0.7,0.2,1,0.4c0.3,0.2,0.6,0.5,0.7,0.9s0.3,0.8,0.3,1.4v4.6c0,0.4,0.2,0.6,0.6,0.6c0.1,0,0.2,0,0.3-0.1v0.9
		c-0.1,0-0.2,0-0.3,0.1c-0.1,0-0.2,0-0.4,0c-0.3,0-0.5,0-0.6-0.1c-0.2-0.1-0.3-0.2-0.4-0.3c-0.1-0.1-0.1-0.3-0.2-0.5s0-0.4,0-0.6h0
		c-0.2,0.3-0.4,0.5-0.6,0.7c-0.2,0.2-0.4,0.4-0.7,0.5c-0.2,0.1-0.5,0.3-0.8,0.3c-0.3,0.1-0.7,0.1-1.1,0.1c-0.4,0-0.8,0-1.1-0.1
		c-0.4-0.1-0.7-0.2-0.9-0.5c-0.3-0.2-0.5-0.5-0.6-0.8c-0.2-0.3-0.2-0.7-0.2-1.1c0-0.6,0.1-1.1,0.4-1.4c0.3-0.3,0.6-0.6,1.1-0.8
		c0.4-0.2,0.9-0.3,1.5-0.4c0.6-0.1,1.1-0.1,1.7-0.2c0.2,0,0.4,0,0.6-0.1c0.2,0,0.3-0.1,0.4-0.2c0.1-0.1,0.2-0.2,0.3-0.3
		c0.1-0.1,0.1-0.3,0.1-0.6c0-0.4-0.1-0.7-0.2-0.9c-0.1-0.2-0.3-0.4-0.5-0.5c-0.2-0.1-0.4-0.2-0.7-0.3c-0.3,0-0.6-0.1-0.9-0.1
		c-0.7,0-1.2,0.2-1.6,0.5c-0.4,0.3-0.7,0.8-0.7,1.5h-1.1C187.7,137.8,187.8,137.3,188,137z M193.3,139.5c-0.1,0.1-0.2,0.2-0.4,0.3
		c-0.2,0.1-0.4,0.1-0.5,0.1c-0.4,0.1-0.9,0.1-1.4,0.2c-0.5,0.1-0.9,0.2-1.3,0.3c-0.4,0.1-0.7,0.3-1,0.5c-0.3,0.2-0.4,0.6-0.4,1
		c0,0.3,0.1,0.5,0.2,0.7c0.1,0.2,0.3,0.4,0.4,0.5c0.2,0.2,0.4,0.3,0.6,0.3c0.2,0.1,0.5,0.1,0.7,0.1c0.4,0,0.8-0.1,1.2-0.2
		c0.4-0.1,0.7-0.3,1-0.5c0.3-0.2,0.5-0.5,0.7-0.9c0.2-0.3,0.2-0.7,0.2-1.1L193.3,139.5L193.3,139.5L193.3,139.5z"/>
	<path class="st3" d="M204.8,144.3v-1.6h0c-0.1,0.3-0.3,0.5-0.5,0.8c-0.2,0.2-0.5,0.4-0.7,0.6c-0.3,0.2-0.6,0.3-0.9,0.4
		s-0.6,0.1-1,0.1c-0.7,0-1.2-0.1-1.7-0.4c-0.5-0.2-0.9-0.6-1.2-1c-0.3-0.4-0.6-0.9-0.7-1.5c-0.2-0.6-0.2-1.1-0.2-1.8
		c0-0.6,0.1-1.2,0.2-1.8c0.2-0.6,0.4-1,0.7-1.5c0.3-0.4,0.7-0.8,1.2-1c0.5-0.2,1.1-0.4,1.7-0.4c0.3,0,0.6,0,1,0.1
		c0.3,0.1,0.6,0.2,0.9,0.4c0.3,0.2,0.5,0.4,0.7,0.6c0.2,0.2,0.4,0.5,0.5,0.8h0v-5h1.1v12L204.8,144.3L204.8,144.3z M198.9,141.3
		c0.1,0.4,0.3,0.8,0.5,1.2c0.2,0.3,0.5,0.6,0.9,0.9c0.4,0.2,0.8,0.3,1.3,0.3c0.6,0,1-0.1,1.4-0.3c0.4-0.2,0.7-0.5,0.9-0.9
		c0.2-0.3,0.4-0.7,0.5-1.2c0.1-0.4,0.2-0.9,0.2-1.3c0-0.4-0.1-0.9-0.2-1.3c-0.1-0.4-0.3-0.8-0.5-1.2c-0.2-0.3-0.6-0.6-0.9-0.9
		c-0.4-0.2-0.9-0.3-1.4-0.3c-0.5,0-0.9,0.1-1.3,0.3c-0.4,0.2-0.7,0.5-0.9,0.9s-0.4,0.7-0.5,1.2c-0.1,0.4-0.2,0.9-0.2,1.3
		C198.8,140.4,198.8,140.8,198.9,141.3z"/>
	<path class="st3" d="M209.5,135.6l2.7,7.6h0l2.7-7.6h1.1l-3.3,8.7h-1.1l-3.4-8.7H209.5z"/>
	<path class="st3" d="M219.4,141.4c0.1,0.4,0.3,0.8,0.5,1.1c0.2,0.3,0.5,0.6,0.9,0.8c0.4,0.2,0.8,0.3,1.3,0.3c0.8,0,1.4-0.2,1.8-0.6
		c0.4-0.4,0.7-0.9,0.9-1.6h1.1c-0.2,1-0.6,1.8-1.2,2.3c-0.6,0.5-1.4,0.8-2.6,0.8c-0.7,0-1.3-0.1-1.8-0.4c-0.5-0.2-0.9-0.6-1.2-1
		s-0.5-0.9-0.7-1.5c-0.2-0.6-0.2-1.1-0.2-1.8c0-0.6,0.1-1.1,0.2-1.7s0.4-1,0.7-1.5c0.3-0.4,0.7-0.8,1.2-1c0.5-0.3,1.1-0.4,1.8-0.4
		c0.7,0,1.3,0.1,1.8,0.4c0.5,0.3,0.9,0.6,1.2,1.1c0.3,0.5,0.5,1,0.7,1.6s0.2,1.2,0.2,1.8h-6.7C219.3,140.6,219.3,141,219.4,141.4z
		 M224.7,138.2c-0.1-0.4-0.3-0.7-0.5-1c-0.2-0.3-0.5-0.5-0.9-0.7c-0.3-0.2-0.7-0.3-1.1-0.3c-0.4,0-0.8,0.1-1.2,0.3
		c-0.3,0.2-0.6,0.4-0.9,0.7c-0.2,0.3-0.4,0.6-0.6,1c-0.1,0.4-0.2,0.8-0.3,1.2h5.6C224.9,138.9,224.8,138.6,224.7,138.2z"/>
	<path class="st3" d="M229.9,135.6v2h0c0.3-0.7,0.7-1.3,1.3-1.6c0.6-0.4,1.2-0.6,2-0.5v1.1c-0.5,0-0.9,0-1.3,0.2
		c-0.4,0.2-0.7,0.4-1,0.6c-0.3,0.3-0.5,0.6-0.7,1c-0.2,0.4-0.2,0.8-0.2,1.3v4.6h-1.1v-8.7L229.9,135.6L229.9,135.6z"/>
	<path class="st3" d="M239.2,135.6v0.9h-1.8v5.9c0,0.3,0,0.6,0.1,0.8c0.1,0.2,0.3,0.3,0.7,0.3c0.3,0,0.6,0,0.9,0v0.9
		c-0.2,0-0.3,0-0.5,0c-0.2,0-0.3,0-0.5,0c-0.7,0-1.2-0.1-1.5-0.4c-0.3-0.3-0.4-0.8-0.4-1.5v-5.9h-1.5v-0.9h1.5V133h1.1v2.6H239.2z"
		/>
	<path class="st3" d="M243.4,132.3v1.7h-1.1v-1.7H243.4z M243.4,135.6v8.7h-1.1v-8.7H243.4z"/>
	<path class="st3" d="M252,137.3c-0.1-0.2-0.3-0.4-0.5-0.6c-0.2-0.2-0.4-0.3-0.7-0.3c-0.3-0.1-0.6-0.1-0.9-0.1c-0.2,0-0.5,0-0.7,0.1
		c-0.2,0.1-0.5,0.1-0.7,0.3c-0.2,0.1-0.4,0.3-0.5,0.5c-0.1,0.2-0.2,0.4-0.2,0.7c0,0.2,0.1,0.4,0.2,0.6c0.1,0.2,0.3,0.3,0.4,0.4
		c0.2,0.1,0.4,0.2,0.6,0.3c0.2,0.1,0.4,0.1,0.6,0.2l1.4,0.3c0.3,0,0.6,0.1,0.9,0.2c0.3,0.1,0.6,0.3,0.8,0.5c0.2,0.2,0.4,0.4,0.6,0.7
		c0.1,0.3,0.2,0.6,0.2,1c0,0.5-0.1,0.9-0.3,1.2c-0.2,0.3-0.5,0.6-0.8,0.8c-0.3,0.2-0.7,0.4-1.1,0.4c-0.4,0.1-0.8,0.1-1.2,0.1
		c-1,0-1.9-0.2-2.5-0.7c-0.6-0.5-1-1.3-1.1-2.3h1.1c0,0.7,0.3,1.3,0.8,1.6c0.5,0.4,1.1,0.5,1.8,0.5c0.3,0,0.5,0,0.8-0.1
		s0.5-0.2,0.8-0.3c0.2-0.1,0.4-0.3,0.6-0.5c0.2-0.2,0.2-0.5,0.2-0.8c0-0.3-0.1-0.5-0.2-0.6c-0.1-0.2-0.3-0.3-0.4-0.4
		c-0.2-0.1-0.4-0.2-0.6-0.3c-0.2-0.1-0.5-0.1-0.7-0.2l-1.4-0.3c-0.3-0.1-0.7-0.2-1-0.3c-0.3-0.1-0.5-0.3-0.8-0.4
		c-0.2-0.2-0.4-0.4-0.5-0.6c-0.1-0.3-0.2-0.6-0.2-0.9c0-0.4,0.1-0.8,0.3-1.1c0.2-0.3,0.5-0.6,0.8-0.8c0.3-0.2,0.7-0.3,1.1-0.4
		c0.4-0.1,0.8-0.1,1.2-0.1c0.4,0,0.8,0.1,1.2,0.2c0.4,0.1,0.7,0.3,1,0.5c0.3,0.2,0.5,0.5,0.7,0.9c0.2,0.3,0.3,0.8,0.3,1.2h-1.1
		C252.2,137.8,252.1,137.5,252,137.3z"/>
	<path class="st3" d="M257.7,132.3v1.7h-1.1v-1.7H257.7z M257.7,135.6v8.7h-1.1v-8.7H257.7z"/>
	<path class="st3" d="M262.4,135.6v1.5h0c0.2-0.5,0.6-1,1.1-1.3c0.5-0.3,1.1-0.5,1.7-0.5c0.6,0,1.1,0.1,1.5,0.2
		c0.4,0.2,0.7,0.4,1,0.7c0.2,0.3,0.4,0.6,0.5,1.1s0.2,0.9,0.2,1.4v5.6h-1.1v-5.4c0-0.4,0-0.7-0.1-1c-0.1-0.3-0.2-0.6-0.4-0.8
		c-0.2-0.2-0.4-0.4-0.7-0.6c-0.3-0.1-0.6-0.2-1.1-0.2s-0.8,0.1-1.1,0.2c-0.3,0.2-0.6,0.4-0.8,0.6c-0.2,0.3-0.4,0.6-0.5,0.9
		c-0.1,0.4-0.2,0.8-0.2,1.2v5.1h-1.1v-8.7L262.4,135.6L262.4,135.6z"/>
	<path class="st3" d="M279,145.3c-0.1,0.5-0.4,1-0.7,1.3c-0.3,0.4-0.7,0.6-1.2,0.8c-0.5,0.2-1.1,0.3-1.8,0.3c-0.4,0-0.9-0.1-1.3-0.2
		c-0.4-0.1-0.8-0.3-1.1-0.5c-0.3-0.2-0.6-0.5-0.8-0.8c-0.2-0.3-0.3-0.7-0.4-1.2h1.1c0.1,0.3,0.2,0.6,0.3,0.8
		c0.2,0.2,0.4,0.4,0.6,0.5c0.2,0.1,0.5,0.2,0.8,0.3c0.3,0.1,0.6,0.1,0.9,0.1c1,0,1.7-0.3,2.1-0.8s0.7-1.4,0.7-2.4v-1.2h0
		c-0.2,0.5-0.6,1-1.1,1.3c-0.5,0.3-1,0.5-1.7,0.5c-0.7,0-1.3-0.1-1.8-0.3c-0.5-0.2-0.9-0.5-1.2-1c-0.3-0.4-0.6-0.9-0.7-1.4
		c-0.1-0.5-0.2-1.1-0.2-1.7c0-0.6,0.1-1.2,0.3-1.7s0.4-1,0.8-1.4s0.7-0.7,1.2-0.9c0.5-0.2,1-0.3,1.7-0.3c0.3,0,0.6,0,0.9,0.1
		c0.3,0.1,0.5,0.2,0.8,0.4c0.2,0.2,0.4,0.4,0.6,0.6c0.2,0.2,0.3,0.4,0.4,0.7h0v-1.5h1.1v8C279.2,144.2,279.2,144.8,279,145.3z
		 M276.6,143c0.3-0.2,0.6-0.5,0.9-0.8c0.2-0.3,0.4-0.7,0.5-1.1c0.1-0.4,0.2-0.8,0.2-1.3c0-0.4,0-0.9-0.2-1.3s-0.3-0.8-0.5-1.2
		c-0.2-0.3-0.5-0.6-0.9-0.8c-0.4-0.2-0.8-0.3-1.3-0.3c-0.5,0-0.9,0.1-1.3,0.3c-0.4,0.2-0.7,0.5-0.9,0.8c-0.2,0.3-0.4,0.7-0.5,1.2
		c-0.1,0.4-0.2,0.9-0.2,1.3c0,0.4,0.1,0.9,0.2,1.3c0.1,0.4,0.3,0.8,0.5,1.1c0.2,0.3,0.5,0.6,0.9,0.8c0.4,0.2,0.8,0.3,1.3,0.3
		C275.8,143.3,276.2,143.2,276.6,143z"/>
</g>
</svg>
